<?xml version="1.0" encoding="utf-8"?>
<!-- Generator: Adobe Illustrator 16.0.4, SVG Export Plug-In . SVG Version: 6.00 Build 0)  -->
<!DOCTYPE svg PUBLIC "-//W3C//DTD SVG 1.1//EN" "http://www.w3.org/Graphics/SVG/1.1/DTD/svg11.dtd">
<svg version="1.1" id="Layer_1" xmlns="http://www.w3.org/2000/svg" xmlns:xlink="http://www.w3.org/1999/xlink" x="0px" y="0px"
	 width="24px" height="26.147px" viewBox="0 0 24 26.147" enable-background="new 0 0 24 26.147" xml:space="preserve">
<g id="icomoon-ignore">
</g>
<path fill="#2790BA" d="M3.483,17.966c-0.859-1.051-1.5-2.218-1.926-3.505c-0.426-1.288-0.607-2.611-0.544-3.97
	c0.062-1.337,0.361-2.625,0.895-3.867c0.555-1.279,1.327-2.411,2.313-3.398C5.278,2.17,6.492,1.365,7.862,0.812
	C9.152,0.281,10.531,0.011,12,0c1.47,0.011,2.849,0.283,4.138,0.812c1.37,0.552,2.583,1.356,3.641,2.414
	c0.987,0.987,1.758,2.12,2.314,3.397c0.534,1.241,0.832,2.53,0.895,3.867c0.062,1.359-0.118,2.682-0.544,3.969
	c-0.425,1.287-1.067,2.455-1.925,3.505c-0.191,0.229-0.434,0.351-0.727,0.367s-0.546-0.082-0.76-0.296
	c-0.181-0.18-0.277-0.398-0.29-0.654s0.062-0.483,0.224-0.682c0.708-0.862,1.235-1.818,1.583-2.87
	c0.348-1.051,0.494-2.135,0.439-3.25c-0.045-1.097-0.287-2.151-0.729-3.16c-0.458-1.045-1.089-1.972-1.896-2.779
	c-0.865-0.865-1.856-1.525-2.973-1.978C14.336,2.232,13.204,2.011,12,2c-1.204,0.011-2.335,0.232-3.392,0.663
	C7.492,3.116,6.502,3.774,5.636,4.641C4.83,5.447,4.198,6.373,3.741,7.419c-0.442,1.009-0.685,2.062-0.729,3.16
	c-0.055,1.116,0.092,2.2,0.439,3.25c0.348,1.052,0.875,2.008,1.582,2.869c0.163,0.199,0.237,0.427,0.225,0.683
	c-0.013,0.256-0.11,0.475-0.29,0.654c-0.14,0.141-0.287,0.233-0.439,0.28c-0.153,0.046-0.297,0.049-0.434,0.008
	c-0.137-0.042-0.253-0.092-0.351-0.151C3.647,18.113,3.56,18.044,3.483,17.966z M11.294,25.854l-4.243-4.242
	c-0.195-0.195-0.293-0.432-0.293-0.708c0-0.275,0.098-0.512,0.293-0.707c0.195-0.194,0.431-0.292,0.707-0.292
	c0.276,0,0.512,0.098,0.707,0.292l2.536,2.536V11c-0.004-0.269,0.094-0.502,0.293-0.701c0.203-0.203,0.439-0.304,0.707-0.304
	c0.269,0,0.504,0.101,0.707,0.304c0.199,0.199,0.299,0.434,0.298,0.707l-0.005,11.728l2.535-2.536
	c0.195-0.194,0.431-0.292,0.707-0.292s0.513,0.098,0.707,0.292c0.195,0.195,0.293,0.432,0.293,0.707
	c0,0.276-0.098,0.513-0.293,0.708l-4.242,4.242c-0.195,0.195-0.431,0.293-0.707,0.293C11.725,26.147,11.489,26.05,11.294,25.854z"/>
</svg>
