<svg id="zipbug" x="0px" y="0px" viewBox="0 0 983.3 838.8">
            <g class="wing left">
                <path class="st0" d="M380.7,641.1c0,0,21.2,41,67.8,62.8c41.8-55.1,8.6-11.5,22.3-140.9c2.9-27,21.6-38.5,15.9-106.1
		c-40.1-17.9,1.6-74.7-139.6-50.1c-19.9,5.8,57.4,39.5,19.5,150.2C356.9,590.6,380.7,641.1,380.7,641.1z" />
                <path class="st1" d="M365.2,552.7c11.8-23.2-6.8-97.2-20.9-137.2c25,12.9,47.9,5.9,47.9,5.9s20.4,48.4,48,67.6
		c11.9,8.3,38,1.4,38,1.4s-25.5,10.1-42.8-1.7c-17.3-11.8-46.2-63.8-46.2-63.8s-2.9,3.4-7.4,2.1c34.6,69.3,6.5,82.8,21.8,110.3
		s48.9,55.5,48.9,55.5s-42-23.7-54.8-51.1c-12.8-27.4,2.7-71.3-23.1-106.1c4.5,38.1,11.2,105.5-1.2,117.8
		c-12.4,12.3-1.6,87.9,23.9,102.5C376.5,654.7,353.4,575.9,365.2,552.7z M374.3,524.1c1.2,0.3,2.1-9.5,0.8-24.9
		c-1.1-12.6-3.7-35.9-5.4-40.9C369.6,458,375.3,510,374.3,524.1z" />
            </g>
            <g class="wing right">
                <path class="st0" d="M599.1,639.9c0,0-21.5,41.9-68.2,63.4c-41.5-55.3-8.5-12.6-21.5-142c-2.7-27.1-21.4-38.6-15.3-106.2
		c40.2-17.7-1.1-74.7,139.9-49.3c19.9,5.9-57.6,39.2-20.4,150.1C623.2,589.5,599.1,639.9,599.1,639.9z" />
                <path class="st1" d="M582.4,654.5c25.6-14.5,36.9-90,24.5-102.3c-12.3-12.4-5.3-79.7-0.5-117.8c-26,34.7-10.8,78.6-23.8,106
		s-55.1,50.8-55.1,50.8s33.7-27.8,49.2-55.2c15.5-27.4-12.5-41.1,22.5-110.1c-4.4,1.2-7.4-2.2-7.4-2.2s-29.2,51.9-46.6,63.6
		s-42.8,1.5-42.8,1.5s26,7.1,38-1.2c27.7-19,48.4-67.3,48.4-67.3s22.8,7.1,47.9-5.7c-14.3,40-33.4,113.9-21.7,137.1
		C626.8,574.8,603.2,653.5,582.4,654.5z M611.2,457.2c-1.7,5-4.5,28.3-5.7,40.9c-1.4,15.4-0.5,25.2,0.6,24.9
		C605.2,508.8,611.3,456.9,611.2,457.2z" />
            </g>
            <g id="FrontLeg_Right_">
                <path class="st1" d="M658.5,303.2c0,0-1.5-2.4-2.6-2c2,11.2-6.8,20.1-6.8,20.1s8.3-5.8,9.3-8.9S658.5,303.2,658.5,303.2z" />
                <path class="st1" d="M654.4,148.9c0,0-5-5.6-9.4,1.4c1.4,1.4,1.8,1.6,4.4,1.1C651.2,150.9,653,150.1,654.4,148.9z" />
                <path class="st1" d="M647.4,133.3c-2.1-0.2-4.3,0.1-6.2,1c1.6-2,0-8.8,0-8.8c-1.8,0.1-3.4-2.2-3.4-2.2s3.4-0.2,3.3-1.6
		c-0.1-1.4-3.7-2.7-3.7-2.7s3.9-5.1-3.7-8c3.6-4.5,7.3-1.7,7.3-1.7s4.7,1.8,2.5,8.9C643.1,121.3,647.4,133.3,647.4,133.3z" />
                <path class="st1" d="M638.9,106.7c0,0-4.6-0.6-5.8,1.8c0,0-4.6-17.3-14.3-18c5.8-7.8,4.8-11.6,4.8-11.6s5.1,1.4,5.5,8.2
		C630.8,94.2,638.9,106.7,638.9,106.7z" />
                <path class="st1" d="M563,39.2c0,0-1.2-4.9,5.8-9.2c0,0-7.3-4.3-9.7-5.1s-9.7-3.1-15,2.5c-8,10.5-6.6,18.3-6.6,18.3
		s4-8.9,10.3-10.6c6.3-1.7,9.2-1,11.4,0S563,39.2,563,39.2z" />
                <path class="st1" d="M633,160.7c0,0-2.3,1.8-2.8,3.2s0,12.5,0,12.5c1.8-2.9,4.8-5,8.2-5.7c6.6-1.2,8.8-0.4,12.4,2.5
		c4,3.1,4.4,19.5,4.4,19.5s2.3,50.1,1.8,57.7s-3.3,16.1-4.6,19.5c-1.3,3.5,2.1,10.4,1.3,13c-0.6,1.6-1.8,2.8-3.3,3.5
		c6.4,2.9,10,13.4,10,13.4s16.2-22.4,17.5-35.3c0.6-7.7,2.4-42.6-2.5-52.7c-1.4-6.7,5.1-7.1,5.1-7.1c6.1-1.4,12.5-1.1,18.6,0.7
		c-7.1-6.6-10-7.4-13.5-8.5s-3.6,0.3-8.5-3.5c-4.9-3.9-8.2-19.8-8.2-21.3c-0.1-1.5-0.4-5.4,4.5-4.5c3.3,0.7,6.5,1.8,9.5,3.5
		c0,0-7.6-8.2-12.1-10.1c-4.5-1.9-4.8-3-5.3-4.2s-1.2-7.7-1.2-7.7s-2.4-0.7-4,0.7c-1.6,1.5-6.2,1.4-6.2,1.4s-5.6,3.3-11.5,1.2
		s-8.3-0.8-9.5-0.2s-5.2,9.1-5.2,9.1s1.8-3,3.9-2.5C633.6,159.3,633,160.7,633,160.7z M639.2,160.3c2.4-4.6,5.5-3.2,5.5-3.2l1.5-0.9
		c0,0,1-0.6,4.3-0.6s2,3.1,2,3.1s-1.5,2.1-0.3,3.7c6.1,1.5,9.3,30,9.3,30s-7.2-26.3-15.5-30.8C644,160.2,641.5,159.7,639.2,160.3
		L639.2,160.3z M635.8,155.8c0.8-2.9,7.2-0.3,7.2-0.3l-3,1c-3,1-1.6,1.8-1.6,1.8S635,158.7,635.8,155.8L635.8,155.8z" />
                <path class="st1" d="M590,299.5c8.9,8.8,12,16.5,16.1,33.1c9.4-1.4,18.5-7.2,25.4-8.6s8.8-1,8.8-1s5.3-1,8.6-4.2
		s13.3-21.6-5.5-31.4c-8.2-3.9-10.1,1.3-11.7,2.4c-1.7,0.9-3.5,1.6-5.4,2.1C626.3,291.9,608.5,294.8,590,299.5z M597,304.4
		c0,0,5.2-1.3,6.6-0.8s-0.8,2.8,1.4,2.6s15-1,16.5-0.7s7.6,1.6,2.3,5.7s-18.3,8.1-18.3,8.1C603.7,313.8,600.8,308.7,597,304.4
		L597,304.4z M621.1,301.9c0,0-9.5,2.3-13,2.4s-2-1.2-2-1.2s8.4-2.2,11.9-2.5S621.1,301.9,621.1,301.9L621.1,301.9z M593.4,299.9
		c0,0,35.7-7,38-7.9c1.3-0.5,2.6-1.3,3.5-2.4c0,0-0.4,3.8,2.5,4.1c0,0-7.4,1-10.7,4.5c-3.6,0.5-26.7,3.5-30.4,5
		C596.6,302.3,593.3,299.9,593.4,299.9L593.4,299.9z" />
                <path class="st1" d="M641.7,142.6l0.3,2.2c0,0,1.9,1.6,6.2,0.5c6.2-2.7,1.4-8.7,0.3-9.5s-7-2.6-7.5,3.3
		C644.8,141.6,641.7,142.6,641.7,142.6z M643,138.6c0-0.8,0.5-2,2.4-1.8s2.5,2.9,2.5,2.9c-0.4,0.4-0.8,1-0.9,1.6
		c0,0.7,1.9,1.3,1.9,1.3s-0.9,2-2.5,1C644.8,142.6,643.1,139.3,643,138.6z" />
                <path class="st1" d="M569.8,44.5c3.7,1.3,5.9,0.5,13.1,3.1c14.8,4.9,36.5,37.6,36.5,37.6c2.8-1.9,2.3-7.3,2.3-7.3
		s-28.4-41.3-43.3-46c-5.8-2.3-8.2-0.5-8.2-0.5c-2.2,0.8-3.9,2.4-4.9,4.5C563,40.8,566.1,43.3,569.8,44.5z M567.2,38.2
		c0.9-5.7,6.5-5.3,6.5-5.3s-2.3,1.6-3.5,2.5c-2.4,1.8,1.7,2.8,1.7,2.8S568.8,40.6,567.2,38.2z" />
                <path class="st1" d="M658.5,300.4c0.5-0.3-4.3-10.9-9.5-13.3c-3.4-1.4-4.3-0.5-4.3-0.5S651.7,290.6,658.5,300.4z" />
            </g>
            <g id="Horn">
                <path class="st1" d="M476.7,36.8v0.5h-0.2c0-0.1,0-0.2,0-0.3S476.6,36.8,476.7,36.8L476.7,36.8z" />
                <path class="st1" d="M480.8,90.6c0,0.1,0,0.1-0.1,0.2c0,0-0.1,0.1-0.2,0.1s-0.1,0-0.1-0.1s0-0.1,0-0.2v-0.1h0.1
		C480.7,90.4,480.7,90.5,480.8,90.6L480.8,90.6z" />
                <path class="st1" d="M502.9,0.7c-7,2-12.8,7.5-18.3,11c-3.2,2-7.3,2-10.5,0c0,0-5.5-4.8-15.5-8.3c-9.8-1.5-4.5,5.3-4.5,5.3l6,7
		c3.6,3.7,6,8.4,6.8,13.5c1.3,8.5,2.3,40.5-4.8,73c-5,66.2-5.3,104-5.3,104s7-25.8,11.8-36.8s5.3-16,6.5-19s3.3,0,3.3,0
		s2.3,7.3,3.8,10.8s7.5,32.3,7.5,32.3s-6-127.3,2.5-164.8c0,0,2-7.3,5.8-10.8s18.8-13,18.8-13S514.7-0.6,502.9,0.7z M457.1,7.5
		c-1.3-0.3-2.3-2.9-1-2.9c1.4,0.2,2.7,0.6,3.9,1.2C460.8,6,458.4,7.8,457.1,7.5z M481,65.8L481,65.8L481,65.8L481,65.8L481,65.8z
		 M502.9,4c-15.5,12.7-19.2,19.2-19.2,19.2s-2.5-2.7-3.8-2.5s-1.8,3-1.8,3s-0.8-4-2-5.2s-3.7-1.3-3.7-1.3l-9.2-10.3
		c0,0,10.3,8.2,11.8,8.5s4,1.7,9-0.5s16.8-11.2,16.8-11.2S503.9,2.2,502.9,4z" />
                <rect x="480.9" y="65.7" class="st1" width="0.1" height="0.1" />
            </g>
            <path id="Body_Triangle" class="st1" d="M508.4,412.4c0,0-17.5,8-40-0.8c-5,0.3-2.5,5.8-2.5,5.8l18.8,31.5c0,0,5.3,6,10,0.3
	s16.8-22.3,18.5-30.8C514.7,413.7,508.4,412.4,508.4,412.4z M508.7,416.4c-1.6,1.6-13.1,10.8-39.3-0.1c-2.4-2.3,0.5-2.3,1.4-2.3
	s19.6,7.1,36.5,0.1C510,413.5,510.3,414.9,508.7,416.4z" />
            <path id="Head" class="st1" d="M591,312c-4.7-5-1.7-24.7-1.7-24.7s33.7-63,25.7-93.7c-3.3-11.3-5-0.7-5-0.7s6.1,28.3-43.3,67
	c-6.3,3.7-11,2.7-11,2.7s-22-3-32.7-6s-15-6.3-19.7-14s-11-29.3-11-29.3s-10-38.2-12.3-49.3c-2.3-10.9-6,0.3-6,0.3
	s-1.7,8.7-2.7,11.7S458,211,458,211l-7.7,29c0,0-0.3,7.7-3,10.7s-4,4.3-9.7,6.3s-6.3,2-15,2.7s-11,1.3-17,0s-11.7-7-11.7-7
	c-29-23-34.3-63.3-34.3-63.3c-3-8-5,0.7-5,0.7s-3.3,22.3,11.7,63c3.6,11.5,6,23.3,7.3,35.3c2.7,7-11.7,26.3-11.7,26.3
	S338.7,373,381,392c26.3,0.3,45-2,55.3,1c13.6,3.9,26.5,9.9,38.3,17.7c17,5,23.3,2.7,36.7-5c27.7-15.7,63.3-15,63.3-15l12,1.3
	c36-17.3,13.3-62.3,13.3-62.3S595.7,317,591,312z M477.5,164.4c0.6,0,1.2,1.3,1.2,3s-0.5,3-1.2,3s-1.2-1.3-1.2-3
	S476.9,164.4,477.5,164.4z M464.4,201c-5.5,18.7-5.7,21.5-5.5,26.5s15.2,6,15.2,6s-16.3,0.5-22.2,9.2
	C451.9,242.7,458.7,209.7,464.4,201z M485.5,233c-0.3-7.3,4-20.5,4-20.5s-1.7,13.2,3.8,19.5c5.7,6.3,7,9.7,10,15.5
	c-23.2-6.3-25.8-5.7-53,2.7C450.4,250.2,451.4,240.4,485.5,233L485.5,233z M402.5,294.8c-0.8,2.7-6.8,5.8-10.8,11.8
	c-26.7,41.7-3.7,80.7-3.7,80.7s-31.3-6.3-26.2-50.3c14.3-8.5,15.2-30.3,15.2-30.3l-2.5-33.3c0,0,4.5,23.5,8.8,25.3s6.2-6.7,10.3-8.7
	C397.9,288,403.4,292.2,402.5,294.8L402.5,294.8z M404,270.4c-2,0-2.5,0-5-1.8c-2.8-2.8,1.3-3.5,1.3-3.5s2.8,0.3,4.8,0.5
	S409.2,269.7,404,270.4L404,270.4z M479.2,275.7c-1.6,1.9-3.8,2.7-5,1.7s-0.9-3.3,0.7-5.2s3.8-2.7,5-1.7S480.7,273.8,479.2,275.7
	L479.2,275.7z M485.5,270.7c-1.6-2.2-4.2-3.5-7-3.5c-3.8,0-7.8,6.5-7.8,6.5s-0.8-2.3-6.5-2.5c-17.5-0.8-45.8,16.5-48.3,17
	s-6.8,0.8-6.5-3.5s5.5-8.5,5.5-8.5s3.8-4,4.8-6.8c0.8-4.5-5-4-5-4l-5,1.5c0,0-2.3-4.3-15-4c-11.5-9.5-23.3-31.5-23.3-31.5
	s19.5,28,31,30.5c9.3,2,6,1.5,18,0.8s32-8.8,32-8.8s18.3-8,31.8-4c10.3,5.3,5.8,31.8,5,30.3s-6.8-3.8-6.8-3.8
	S486.2,271.9,485.5,270.7L485.5,270.7z M502,277.3c-1.6-1.1-2.5-2.9-2.4-4.8c0.1-1.2,1.2-2.1,2.4-1.9c0.2,0,0.5,0.1,0.7,0.2
	c1.6,0.8,4.3,2.8,4.4,4.3S504.7,278.8,502,277.3L502,277.3z M526,280.7c-2.3-4.2-7-2.7-7-2.7s-9.8-10.9-24.8-10.7
	c-1.2-2.2-4.8-14.8,2.2-17.3c5.5-0.8,11.5,2,11.5,2s16.5,14,49.8,13.7c19.3-4,35.3-26.2,35.3-26.2s-12.5,21.3-18.4,21.9
	c-5.3,1.4-6.3,5.3-6.3,5.3s-7.2-3.2-15.8,17.7C539.5,284.4,533,284.7,526,280.7L526,280.7z M572.5,268.7c0,0-5.6,5.8-7.9,3.3
	s0.3-3.6,1.6-3.6S572.4,268.7,572.5,268.7L572.5,268.7z M586.7,385c-4.2,1.8-20.7-7.2-20.7-7.2s15.5-2.2,16.3-13.2
	s-10.3-45-15.3-52.3s-11-22-11-22s20.8-1.3,24,4.2c2.2-4.8,5-9.2,8.3-13.2c0,0-6,18.5,0,32.2C610.2,361.5,590.9,383.2,586.7,385z" />
            <path id="Right_Eye" class="st1" d="M520.2,253.8c-13.6-4.6-17-18.6-17-18.6s8.6,2.1,13.1,7.5C519,245.8,520.4,249.7,520.2,253.8z" />
            <path id="Left_Eye" class="st1" d="M448.9,239.7c0,0-8,0.8-12.5,6.1c-2.7,3.1-4,7.1-3.9,11.1C450.2,252.9,448.9,239.7,448.9,239.7z
	 M435.7,254.1c-0.4,0.3-1,0.3-1.3-0.1s-0.3-1,0.1-1.3c0.3-0.2,0.6-0.3,0.9-0.2C435.8,252.9,436,253.6,435.7,254.1z M442.7,244.1
	c-0.4-0.1-0.6-0.5-0.5-0.9s0.5-0.6,0.9-0.5c0.3,0.1,0.5,0.4,0.5,0.7C443.5,243.8,443.1,244.1,442.7,244.1L442.7,244.1z M446.1,242.8
	c-0.8,0.4-1.6,0.4-1.8,0c-0.2-0.4,0.3-1.1,1.1-1.5c0.8-0.4,1.6-0.4,1.8,0C447.4,241.8,447,242.4,446.1,242.8L446.1,242.8z" />
            <path class="st1" d="M483.4,715.2c0,0,6,2.8,11-0.8C492.4,693,489,574,489,574S487.4,701.7,483.4,715.2z" />
            <path class="st1" d="M482.2,707.7c0,0-20-8.5-34.8,0c-9,4.5-23-5-23-5s-39.7-32.5-62.3-81.5c-7.5-19-9-43.8-6-71.8
	c9.8-44-8.5-66.3-8.5-66.3s-10.8-15.5-9.5-28.3c1.5-6.8,6-3,7-9.5c-0.3-6-4-34.3-4-34.3s-12.3,33.8-15,46.8s-5,96.5-4.5,108.8
	s1,18.8,4.5,27.5c2.7,10.2,10.5,49.2,31,65.5c16.5,12.5,67.8,51.8,78.5,53.5s12,1.3,12,1.3s29.3,2.5,32.3,1.3
	S482.2,707.7,482.2,707.7z M340.2,421.7c2,13,2.3,20.1,0.8,23.9s-3.1,0.9-5.3,5.6c-2.2,4.7-7.7,47.2-7.7,47.2
	C328,497.4,322.4,464,340.2,421.7z M336.5,491.5c-2.1-3.7-3.9-4.9-3.4-12.8c0.2-6.2,1.7-16.1,1.7-16.1c1.2,1.7,1.8,3.6,1.9,5.7
	c-2.6,4.4,0.6,6.9,0.6,6.9S334.2,486.8,336.5,491.5z M349.4,508.9c-2.1,0.7-5.1-2.4-6.6-6.9s-1-8.7,1.2-9.5s5.1,2.4,6.6,6.9
	C352.1,504,351.5,508.2,349.4,508.9L349.4,508.9z" />
            <ellipse transform="matrix(0.6778 -0.7353 0.7353 0.6778 -167.1305 465.8655)" class="st1" cx="448" cy="423.6" rx="3.3" ry="10.4" />
            <ellipse transform="matrix(0.4187 -0.9081 0.9081 0.4187 -120.9875 632.222)" class="st1" cx="433.4" cy="410.6" rx="1.4" ry="3.8" />
            <ellipse transform="matrix(0.8536 -0.5209 0.5209 0.8536 -141.4932 362.2678)" class="st1" cx="573.8" cy="432.9" rx="3.8" ry="8.8" />
            <path class="st1" d="M652.5,457.9c-2.8-13-12-47.8-12-47.8s-3.8,28.3-4,34.3c1,6.5,2.5,3.8,4,10.5c1.3,12.8-9.5,28.3-9.5,28.3
	s-18.3,22.3-8.5,66.3c3,28,1.5,52.8-6,71.8c-22.6,49-62.3,81.5-62.3,81.5s-14,9.5-23,5c-14.8-8.5-34.8,0-34.8,0s-0.8,6.8,2.3,8
	s32.3-1.3,32.3-1.3s1.3,0.5,12-1.3s62-41,78.5-53.5c20.5-16.3,28.3-55.3,31-65.5c3.5-8.8,4-15.3,4.5-27.5S655.2,470.9,652.5,457.9z
	 M637.7,533.8c-1.8-3.3-1.5-18.3-7-21.4c-10.3-5.7,3.2-21.4,7-21.4c3.9,0,7,9.6,7,21.4S639.5,537.3,637.7,533.8L637.7,533.8z
	 M641.7,483.4c-3-7.3,5.7-22.7,2-29.7s-4-10.7-4-10.7l1.7-17.7c0,0,6.3,25.3,8,33.7c1.7,8.3,4,76.7,4,76.7S649.4,482.7,641.7,483.4
	L641.7,483.4z" />
            <g id="Front_Leg_Left_">
                <path class="st1" d="M303.7,300c-1.2-0.3-2.5,2.2-2.5,2.2s-0.5,6.2,0.7,9.2s9.8,8.3,9.8,8.3S302.4,311.4,303.7,300z" />
                <path class="st1" d="M305.9,148.7c-4.8-6.7-9.5-0.8-9.5-0.8c1.5,1.1,3.3,1.8,5.2,2.2C304.2,150.4,304.5,150.2,305.9,148.7z" />
                <path class="st1" d="M308.7,132.6c-1.8-1.9-0.5-8.8-0.5-8.8c1.8,0,3.3-2.4,3.3-2.4s-3.4,0-3.4-1.4s3.5-2.9,3.5-2.9
		s-4.2-4.9,3.3-8.3c-3.8-4.3-7.4-1.3-7.4-1.3s-4.6,2.1-2,9c0.6,3-3,15.3-3,15.3C304.6,131.6,306.7,131.8,308.7,132.6z" />
                <path class="st1" d="M315.4,106.3c0,0,3.6-17.5,13.3-18.8c-6.3-7.4-5.5-11.3-5.5-11.3s-5.1,1.7-5,8.5c-1.3,7.1-8.7,20.1-8.7,20.1
		S314,104,315.4,106.3z" />
                <path class="st1" d="M399.4,20.2c-5.6-5.3-12.8-2.5-15.1-1.6s-9.4,5.6-9.4,5.6c7.3,3.9,6.4,8.9,6.4,8.9s1.4-3.3,3.5-4.4
		s5-2,11.4-0.6s10.9,10,10.9,10S408.1,30.2,399.4,20.2z" />
                <path class="st1" d="M308.4,284.9c-1.6-0.5-2.8-1.7-3.5-3.3c-1-2.5,2-9.6,0.5-13s-4.9-11.6-5.8-19.3s-1.5-57.8-1.5-57.8
		s-0.5-16.4,3.3-19.8c3.5-3.1,5.6-4.1,12.3-3.3c3.4,0.5,6.5,2.4,8.5,5.3c0,0-0.1-11.1-0.8-12.5s-3-3-3-3s-0.8-1.4,1.3-2s4,2.3,4,2.3
		s-4.5-8.3-5.8-8.8s-3.8-1.8-9.5,0.8s-11.5-0.5-11.5-0.5s-4.6,0.4-6.3-1s-4-0.5-4-0.5s-0.4,6.5-0.8,7.8s-0.6,2.4-5,4.5
		s-11.5,10.8-11.5,10.8c2.9-1.8,6-3.2,9.3-4c4.9-1.1,4.8,2.8,4.8,4.3s-2.4,17.6-7,21.8s-4.8,2.8-8.3,4s-6.3,2.3-13,9.3
		c5.9-2.2,12.3-2.8,18.5-1.8c0,0,6.5,0,5.5,6.8c-4.4,10.4-0.5,45.1,0.5,52.8c2,12.9,19.5,34.3,19.5,34.3S302.2,288.2,308.4,284.9z
		 M268,201.2c-2.2,0.2-4.4,0.8-6.5,1.7c0,0,1.3-1.5,5.3-3c2.9-0.9,5.9-1.4,9-1.3C275.9,198.5,270.7,201.2,268,201.2z M315.4,153.7
		c1,2.8-2.5,2.7-2.5,2.7s1.3-0.8-1.7-1.7l-3-0.8C308.2,153.8,314.4,150.9,315.4,153.7L315.4,153.7z M299.4,161.2
		c1.2-1.7-0.5-3.7-0.5-3.7s-1.5-3,1.8-3.2s4.3,0.3,4.3,0.3l1.5,0.8c0,0,3-1.7,5.7,2.8c-2.4-0.4-4.8,0.2-6.7,1.7
		c-8,5-13.7,31.7-13.7,31.7S293.4,163,299.4,161.2L299.4,161.2z" />
                <path class="st1" d="M327.2,287.2c-1.7-1-3.8-6-11.8-1.7c-18.2,10.8-7.2,28.7-3.7,31.7s8.8,3.7,8.8,3.7s1.8-0.5,8.8,0.5
		s16.3,6.3,25.8,7.2c3.1-16.9,5.8-24.7,14.2-34c-18.7-3.7-36.7-5.5-36.7-5.5C330.8,288.6,328.9,288,327.2,287.2z M355,315.1
		c0,0-13.3-3.3-18.8-7s0.5-5.4,2-5.8s14.3-0.3,16.5-0.3s-0.2-2.1,1.3-2.7c1.4-0.6,6.7,0.4,6.7,0.4
		C359.2,304.4,356.6,309.6,355,315.1z M341.6,297.2c3.5,0.1,12,1.8,12,1.8s1.7,1.3-1.9,1.3s-13.2-1.7-13.2-1.7
		S338.1,297.1,341.6,297.2L341.6,297.2z M363.4,298.7c-3.8-1.3-27.1-3-30.7-3.3c-3.5-3.3-10.9-3.9-10.9-3.9c2.8-0.5,2.3-4.3,2.3-4.3
		c1,1,2.3,1.7,3.7,2.2c2.3,0.8,38.4,5.7,38.4,5.7S362.9,297.7,363.4,298.7L363.4,298.7z" />
                <path class="st1" d="M302.4,143.9c4.4,0.9,6.1-0.9,6.1-0.9l0.1-2.3c0,0-3.1-0.8,0.5-3.5c-0.8-5.9-6.6-3.8-7.6-2.9
		S296.1,141.6,302.4,143.9z M303.3,139.9c-0.2-0.6-0.5-1.1-1-1.5c0,0,0.5-2.8,2.4-3.1s2.5,0.9,2.5,1.6s-1.5,4.2-3.1,5.3
		s-2.6-0.9-2.6-0.9S303.4,140.6,303.3,139.9L303.3,139.9z" />
                <path class="st1" d="M373.7,25.8c0,0-2.5-1.6-8.1,1C350.9,32.3,325,75.2,325,75.2s-0.1,5.4,2.8,7.1c0,0,19.8-33.9,34.3-39.6
		c7-3,9.3-2.4,12.9-3.9s6.6-4.1,4-8.8C377.8,28,375.9,26.5,373.7,25.8z M372.4,32.6c0,0,4-1.3,1.5-2.9c-1.3-0.8-3.6-2.3-3.6-2.3
		s5.5-0.8,6.8,4.9C375.6,34.8,372.4,32.6,372.4,32.6z" />
                <path class="st1" d="M300.8,298.6c-0.5-0.3,4.3-10.9,9.5-13.3c3.4-1.4,4.3-0.5,4.3-0.5S307.7,288.7,300.8,298.6z" />
            </g>
            <path class="st1" d="M294.3,532.9c0,0,0-0.1-0.1-0.2C294.2,532.9,294.3,532.9,294.3,532.9z" />
            <path class="st1" d="M685.8,533c0,0,0-0.1,0-0.2C685.9,532.9,685.8,533,685.8,533z" />
            <g id="Left_Leg_1">
                <path class="st1" d="M344.5,684.2c2.2,0.6,11.5,7.3,11.5,7.3s-8.5-13.8-10.3-17.5s-6.3-33.7-12-47.3c-1.2-2.9-4.4-15.1-10.5-24
		c-6.6-0.2-15.2-8.5-15.2-8.5s-1.1,20.8,1.8,26.3c0.9,1.8-3.2,12.3-3.2,12.3s4-3.3,6.2-2.3s4.7,12.2,4.7,16s-4,12.2-4,12.2
		s5.6-8.6,7.5-7.7c1.9,0.9,3.3,14.7,3.3,18.5s-7.2,25.8-7.2,25.8s7.8-11.5,10.3-12.2s3,1.4,3.2,2.2s1,23.3,1,23.3c3.5-2,6,1.5,6,1.5
		l3.8-19.5l5.3,2c0,0-3.9-5.3-4.3-6.3S342.4,683.6,344.5,684.2z M313.4,602.8c0-0.6,0.5-1.1,1.2-1s1.1,0.5,1,1.2
		c0,0.5-0.4,0.9-0.9,1C314.1,604,313.5,603.5,313.4,602.8z M320.4,629.4c-0.6-0.7-0.7,0.2-0.7,0.2l3.2,7.4c0,0-6-11.2-6.6-13.4
		s-1.7-11-1.3-12.7s1.5-2.3,3-2.6c0.7-0.1,1.4-0.4,1.9-0.9l0.3-0.2c-0.1,0.1-0.2,0.2-0.3,0.2c-0.8,0.8-3.5,3.4-3.3,4.1
		c0.2,0.6,0.6,1,1.2,1.3c-0.3,0.5-0.6,0.9-0.9,1.4c-0.2,0.2-0.7,1.8,0.1,2.4s4.1-0.9,4.1-0.9s-1.1,3.4-2.3,3.1s-1.3,1.8-1.3,1.8
		s-0.5,2.5,0.5,3.3c2.1-0.1,4-0.2,3.9,1.5s2.4,5.4,2.4,5.4l-3.1-1.9l4.1,9.1C325.2,637.9,321,630.1,320.4,629.4L320.4,629.4z
		 M321,612.5c-1.1-0.3-1.1,2.2-1.1,2.2s-1.9,1-1.7-0.3c0.1-0.7,0.5-1.4,1.2-1.7c-0.6-0.2-1.1-0.8-1.2-1.5c-0.1-2.1,3.1-1.7,3.4-1.2
		c1.9,1.9,4.7,11.2,4.7,11.2S322.1,612.8,321,612.5L321,612.5z" />
                <path class="st1" d="M318.9,571.2c0,0-13,11.3-8,19.5s14.7,9.3,14.7,9.3C318,590.2,318.9,571.2,318.9,571.2z M312.4,589.7
		c-1.2-1.4-1.6-3.3-1.1-5.1c0.7-3.2,2.3-6.1,6.1-9.4C312.4,584,312.4,589.7,312.4,589.7z" />
                <path class="st1" d="M330.8,710.3c3.6-1.6,6.8,1.8,6.8,1.8l3,1.6c0,0-2.4,0.4-2.4,1.1s2.1,1.6,2.1,1.6s-3.1,1.8-2.9,2.4
		s2.6,1.8,2.6,1.8l-2.8,1.9c0,0-1.5,2.9-4.4,2.8s-5.9-2.8-5.8-7.5S328.9,711.4,330.8,710.3z" />
                <path class="st1" d="M329.2,725.3l-1,2.3c0,0,1.4-1,2-0.4s-1.1,18.6-1.9,21.6c-0.3,3.6,1.9,4.8,3.5,5c3.9,0,6.8-4.4,6.8-4.4
		l1.8-2.9c-0.4,0.2-1,0.2-1.4-0.1c-0.4-0.5,0.5-1.3,0.5-1.3s-1.8,0.1-2.1-0.5c-0.2-0.4-0.2-0.9,0-1.4l1.5-1.4c0,0-1.5,0.1-1.9-0.5
		s-0.5-10.4,0.3-17.1C334,727.9,329.2,725.3,329.2,725.3z" />
                <path class="st1" d="M332.8,755.7c0,0,3,0.4,5.5-3.1c1.4,8.1,5.6,15.5,11.8,21c0,0-0.5,4.8-2.8,6.5s-3.5,0.6-4.4,1.3
		s-1.3,1.6-0.8,3.9C337.8,781.8,332.8,755.7,332.8,755.7z" />
                <ellipse transform="matrix(0.886 -0.4638 0.4638 0.886 -324.5152 251.9487)" class="st1" cx="350" cy="785.8" rx="3.5" ry="2.6" />
                <path class="st1" d="M348.8,790.3c5.1,0.3,6.7-2.3,6.7-2.3s14,22.4,23.9,25.2c10.6,2.8,9.6,2.8,13.1,6.4c5.7,2.7,12.4,2.1,17.6-1.6
		c-1.6,8.8-16.4,4.5-16.4,4.5s-1.4,0.4-0.5,1.2c12.3,11.9,17.6-4.4,17.6-4.4s1.1,5.9-0.6,8.6c1.1,0.2,3.5-3.7,3.5-3.7
		s-7.9,28.8-27.1,4c-0.3-0.7-0.3-1.4-0.1-2.1c0,0-3.5,1.3-3.8,3.8C363.1,825.2,348.8,790.3,348.8,790.3z" />
                <path class="st1" d="M346.3,781.9c-0.6,0.7-0.6,1.7,0.1,2.3c0,0,0.1,0.1,0.2,0.1c0,0,3.3-3.1,5.9-2.4c0.6-2.5-2.3-5.1-2.3-4.9
		S349.2,781.4,346.3,781.9z" />
            </g>
            <g id="Right_Leg_1">
                <path class="st1" d="M636.1,686.3c-0.4,1-4.3,6.3-4.3,6.3l5.3-2l3.8,19.5c0,0,2.5-3.5,6-1.5c0,0,0.8-22.6,1-23.3
		c0.2-0.8,0.7-2.8,3.2-2.2s10.3,12.2,10.3,12.2s-7.2-22-7.2-25.8s1.4-17.6,3.3-18.5s7.5,7.7,7.5,7.7s-4-8.3-4-12.2s2.5-15,4.7-16
		s6.2,2.3,6.2,2.3s-4.1-10.5-3.2-12.3c2.9-5.6,1.8-26.3,1.8-26.3s-8.6,8.3-15.2,8.5c-6.1,8.9-9.3,21.1-10.5,24
		c-5.7,13.6-10.2,43.7-12,47.3c-1.8,3.7-10.3,17.5-10.3,17.5s9.3-6.8,11.5-7.3C636.3,683.6,636.5,685.3,636.1,686.3z M663.9,604
		c-0.8,0-1.4-0.6-1.5-1.3c0-0.8,0.6-1.4,1.3-1.5c0.8,0,1.4,0.6,1.5,1.3c0,0.1,0,0.2,0,0.4C665.2,603.5,664.6,604,663.9,604z
		 M653.4,638.1l4.1-9.1l-3.1,1.9c0,0,2.4-3.7,2.4-5.4s1.9-1.6,3.9-1.5c1-0.8,0.5-3.3,0.5-3.3s-0.1-2-1.3-1.8s-2.3-3.1-2.3-3.1
		s3.3,1.5,4.1,0.9s0.3-2.3,0.1-2.4c-0.3-0.4-0.6-0.9-0.9-1.4c0.5-0.3,1-0.7,1.2-1.3c0.2-0.7-2.5-3.3-3.3-4.1
		c-0.1-0.1-0.2-0.2-0.3-0.2l0.3,0.2c0.6,0.4,1.2,0.7,1.9,0.9c1.5,0.3,2.6,0.9,3,2.6c0.4,1.7-0.7,10.5-1.3,12.7s-6.6,13.4-6.6,13.4
		l3.2-7.4c0,0-0.1-0.8-0.7-0.2C657.7,630.2,653.4,637.9,653.4,638.1L653.4,638.1z M652.4,621.2c0,0,2.8-9.3,4.7-11.2
		c0.3-0.5,3.5-0.9,3.4,1.2c-0.1,0.7-0.6,1.2-1.2,1.5c0.7,0.3,1.1,1,1.2,1.7c0.2,1.3-1.7,0.3-1.7,0.3s0-2.5-1.1-2.2
		S652.4,621.2,652.4,621.2L652.4,621.2z" />
                <path class="st1" d="M653.1,600c0,0,9.7-1.2,14.7-9.3s-8-19.5-8-19.5S660.6,590.2,653.1,600z M661.3,575.2c3.8,3.4,5.4,6.3,6.1,9.4
		c0.5,1.8,0,3.6-1.1,5.1C666.2,589.7,666.3,584,661.3,575.2L661.3,575.2z" />
                <path class="st1" d="M647.8,710.3c-3.6-1.6-6.8,1.8-6.8,1.8l-3,1.6c0,0,2.4,0.4,2.4,1.1s-2.1,1.6-2.1,1.6s3.1,1.8,2.9,2.4
		s-2.6,1.8-2.6,1.8l2.8,1.9c0,0,1.5,2.9,4.4,2.8s5.9-2.8,5.8-7.5S649.7,711.4,647.8,710.3z" />
                <path class="st1" d="M649.4,725.3l1,2.3c0,0-1.4-1-2-0.4s1.1,18.6,1.9,21.6c0.3,3.6-1.9,4.8-3.5,5c-3.9,0-6.8-4.4-6.8-4.4l-1.8-2.9
		c0.4,0.2,1,0.2,1.4-0.1c0.4-0.5-0.5-1.3-0.5-1.3s1.8,0.1,2.1-0.5c0.2-0.4,0.2-0.9,0-1.4l-1.5-1.4c0,0,1.5,0.1,1.9-0.5
		s0.5-10.4-0.3-17.1C644.6,727.9,649.4,725.3,649.4,725.3z" />
                <path class="st1" d="M645.8,755.7c0,0-3,0.4-5.5-3.1c-1.4,8.1-5.6,15.5-11.8,21c0,0,0.5,4.8,2.8,6.5s3.5,0.6,4.4,1.3
		s1.3,1.6,0.8,3.9C640.8,781.8,645.8,755.7,645.8,755.7z" />

                <ellipse transform="matrix(0.4638 -0.886 0.886 0.4638 -359.0506 978.2862)" class="st1" cx="628.6" cy="785.8" rx="2.6" ry="3.5" />
                <path class="st1" d="M629.9,790.3c-5.1,0.3-6.7-2.3-6.7-2.3s-14,22.4-23.9,25.2c-10.6,2.8-9.6,2.8-13.1,6.4
		c-5.7,2.7-12.4,2.1-17.6-1.6c1.6,8.8,16.4,4.5,16.4,4.5s1.4,0.4,0.5,1.2c-12.3,11.9-17.6-4.4-17.6-4.4s-1.1,5.9,0.6,8.6
		c-1.1,0.2-3.5-3.7-3.5-3.7s7.9,28.8,27.1,4c0.3-0.7,0.3-1.4,0.1-2.1c0,0,3.5,1.3,3.8,3.8C615.5,825.2,629.9,790.3,629.9,790.3z" />
                <path class="st1" d="M632.4,781.9c0.6,0.7,0.6,1.7-0.1,2.3c0,0-0.1,0.1-0.2,0.1c0,0-3.3-3.1-5.9-2.4c-0.6-2.5,2.3-5.1,2.3-4.9
		S629.4,781.4,632.4,781.9z" />
            </g>
            <ellipse transform="matrix(0.5176 -0.8556 0.8556 0.5176 -118.8619 783.1308)" class="st1" cx="635.1" cy="497" rx="4.6" ry="2.2" />
            <g>
                <path class="st1" d="M328.5,441.7c-0.8-1,1.3-11.7,1.8-15s-2.7-1.8-2.7-1.8l-3.2,2c0,0,4.2-6.3,7.3-7.5c1.7-0.8,3.6-0.4,4.8,1
		C333.3,427.2,330.6,434.3,328.5,441.7z" />
                <path class="st1" d="M328.1,427.9c0,0,0-1.9-1.9-1c-14.1,8.8-19,32.9-19,32.9s-0.1,2.6-4.5,4.5c-2.1,0.8-8.3,6.1-8.3,6.1
		s4.5-1.5,7.8-2.4s2.9,4.4,2.9,4.4s0.1,4-2.6,6s-16.2,15-16.2,15s7-5,11.1-6.3s2.9,2.8,2.9,2.8s-0.5,1-2.1,3.7s-10,12.9-10,12.9
		l-15.1,17.3c0,0,8.4-5.3,9.9-6.1s2-4,5.1-5.6c3.1-1.6,3.6,2.8,3.6,2.8l-1.9,4.3c0,0-3.9,5.8-2.4,11.3c5.3-1.7,6.6,1.5,6.8,2.4
		c0.5-0.9,1.1-1.7,1.9-2.4c1.4-1.4,1.7-3.6,0.8-5.4c0,0,0-2.5,1.5-1.6c1.4,0.7,2.9,1.3,4.4,1.8c-1.3-1.2-2.4-2.5-3.5-3.9
		c-1-1.5,0.6-3.4,0.6-3.4s2.6-2.5,4.8,0s5.8,5.1,9,7.5c-2.3-3.1-4.4-6.4-6.3-9.8c0.8-0.7,2-0.8,3-0.3c-5.8-8.3,0-10,0-10
		s-0.5-5.5,1-9.5s6.6-16.9,8.4-20.9s3.9-13.3,3.9-13.3s2.5-8.6,4.6-16.3C323.4,442.2,328.1,427.9,328.1,427.9z M308,474.4
		c-0.4-1.3-0.4-2.6,0-3.9c0.7-2.1,1.6-4.1,2.6-6C310.6,464.6,311.3,472.8,308,474.4L308,474.4z M310.5,477.6c-0.5,0.1-0.4-2,0.3-3
		c0.6-0.7,1.4-1.2,2.3-1.4C313,473.2,310.9,477.4,310.5,477.6L310.5,477.6z M323.3,446.9c0,0-4.6,6.9-5.5,13
		c1.6,1.9-3.3,9.1-3.3,9.1s1.4-6.8,0.8-7.3s-2.6,1.1-2.6,1.1s0.8-6.6,2.9-8.8c0.9,0.1,1.1,2.3,1.1,2.3s6.9-14.5,7-13.1
		C323.7,444.5,323.6,445.7,323.3,446.9L323.3,446.9z" />

                <ellipse transform="matrix(0.3133 -0.9496 0.9496 0.3133 -309.4916 642.2572)" class="st1" cx="289.4" cy="535.1" rx="4.5" ry="3.2" />
                <path class="st1" d="M285.5,533.4c0,0-1,4.5,0,6.3s4.6,0.8,4.6,0.8l-0.6,2.1l1.8,0.3c0,0-3.2,0.7-2.8,1.4c0.2,0.7,0.3,1.5,0.1,2.3
		l1.8,0.6c0,0-2.8,0.4-3,1.3c-0.2,0.7-0.3,1.4-0.4,2.2l3.1,0.7c-1.1,0.1-2.2,0.4-3.3,0.9c-0.4,0.8-0.9,1.6-1.6,2.2
		c0,0,4.6,1.2,3.3,0.9c-1.3-0.3-3.8,1.1-3.8,1.1s-1.5,4.1-3,4c-2.2-0.2-4.2-1.2-5.7-2.8c-0.8-0.9-0.7-3.7,0.4-6.9s6.3-9,6.8-11.3
		C283,538,285.5,533.4,285.5,533.4z" />
                <path class="st1" d="M276.2,559.1c1.4,1.4,3.3,2.2,5.3,2.4c-1.7,1.6-3,3.7-3.9,5.9l1,2.1l-2.3,1c0,0-1.6,2.4-1.4,3.3
		s1.9,1.1,1.9,1.1l-2.5,2c0,0-1,2-0.3,3.5c0.4,0.9,1,1.6,1.8,2.3c-1.1,0.2-2.1,0.5-3.1,0.9c-1,0.5,0.3,4-2.1,4.9
		c-1.8,0-6.8,0.9-7.4-7.4C262.8,574.3,276.2,559.1,276.2,559.1z" />
                <path class="st1" d="M264.5,587.9c1.3,1.7,3.6,2.5,5.7,2c-1.7,3.3-3.4,8.8-2.9,9.7c0.5,0.6,1.3,1,2.1,1.1l-2.2,0.6
		c0,0-0.4,2.5,0.3,3.4c0.4,0.5,1,1,1.7,1.3l-1.6,1.4c0,0,1.5,1.8,0.8,3.1c-5.3,0.9-8.2,6.8-8.2,6.8s-4.7-4.3,0.3-13.8
		C265.4,593.9,264.5,587.9,264.5,587.9z" />
                <path class="st1" d="M298.7,686.6c-3.7-1.3-6.3-4.6-6.8-8.5c0,0,2.7-2.6-8.8-13.4c-11.4-10.8-15.7-47.9-15.7-47.9
		c-1.2,2.1-3.2,3.6-5.5,4.3c0.3,2,4.6,28.8,7.3,35.8c1.7,5.5,13.5,25.5,14.1,28.6c6.3,17.8,9.3,16.3,12.3,17.3
		c5.6,0.9,6.6-5.8,6.6-5.8s-4.5,2.7-7.4,0.6c-5.1-4.2-6-11.1-6-11.1s0.4-1.8,1.9-0.2c3.8,4.4,9,7.2,14.8,7.9c6.9,1,9.2-8.3,9.2-8.3
		S311.3,691.8,298.7,686.6z M282.1,673.4c-0.9,0-1.6-1.6-1.6-3.5s0.7-3.5,1.6-3.5s1.6,1.6,1.6,3.5S283,673.4,282.1,673.4z
		 M283,676.1c0.1-1.7,0.8-3.2,1.8-4.6c1.7-0.2,0.9,0,3.3,1.8C286.2,673.2,283,676.1,283,676.1L283,676.1z M286.5,680.6
		c-1.5-0.2-2.5-1.6-2.2-3.1c0-0.2,0.1-0.4,0.2-0.6c0.4-1.4,1.8-2.4,3.3-2.3c1.9,0.2,1.8,2,1.8,2.5S289.4,680.8,286.5,680.6
		L286.5,680.6z" />

                <ellipse transform="matrix(0.7201 -0.6939 0.6939 0.7201 -353.5523 356.0162)" class="st1" cx="264.5" cy="616.2" rx="3.8" ry="1.7" />
            </g>
            <g>
                <path class="st1" d="M652.3,441.4c0.8-1-1.2-11.7-1.7-15s2.7-1.8,2.7-1.8l3.2,2c0,0-4.1-6.4-7.3-7.6c-1.7-0.8-3.6-0.4-4.8,1
		C647.6,426.9,650.3,434.1,652.3,441.4z" />
                <path class="st1" d="M652.5,445.2c2.1,7.6,4.5,16.3,4.5,16.3s2,9.3,3.8,13.3s6.7,16.9,8.2,20.9s0.9,9.5,0.9,9.5s5.7,1.8-0.1,10
		c1-0.5,2.2-0.4,3,0.3c-1.9,3.4-4,6.6-6.3,9.7c3.3-2.3,6.9-4.9,9.1-7.4c2.1-2.5,4.8,0,4.8,0s1.6,1.9,0.6,3.4
		c-1.1,1.4-2.3,2.7-3.5,3.8c1.5-0.4,3-1,4.4-1.7c1.5-0.9,1.5,1.6,1.5,1.6c-1,1.7-0.7,4,0.7,5.4c0.8,0.7,1.4,1.5,1.9,2.4
		c0.3-0.9,1.5-4.1,6.8-2.3c1.5-5.5-2.3-11.3-2.3-11.3l-1.8-4.3c0,0,0.5-4.4,3.7-2.7c3.2,1.7,3.6,4.8,5.1,5.7s9.8,6.2,9.8,6.2
		l-15-17.5c0,0-8.3-10.3-9.9-13c-1.6-2.7-2-3.7-2-3.7s-1.1-4.1,2.9-2.7s11,6.4,11,6.4s-13.3-13.1-16-15.1s-2.6-6-2.6-6
		s-0.3-5.3,2.9-4.4s7.7,2.4,7.7,2.4s-6.1-5.4-8.2-6.2c-4.4-1.9-4.5-4.5-4.5-4.5s-4.7-24.2-18.7-33c-1.9-0.9-1.9,1-1.9,1
		S657.4,442,652.5,445.2z M670.1,464.4c1,1.9,1.9,3.9,2.6,6c0.4,1.3,0.4,2.6,0,3.9C669.3,472.7,670.1,464.5,670.1,464.4L670.1,464.4
		z M667.6,473c0.9,0.2,1.7,0.7,2.2,1.4c0.6,1,0.7,3.1,0.2,3S667.7,473.1,667.6,473L667.6,473z M657.1,443c0.1-1.4,6.9,13.2,6.9,13.2
		s0.3-2.1,1.1-2.2c2.1,2.1,2.8,8.8,2.8,8.8s-2-1.6-2.6-1.1s0.7,7.3,0.7,7.3s-4.8-7.3-3.2-9.1c-0.8-6.1-5.4-13-5.4-13
		C657.2,445.5,657.1,444.3,657.1,443L657.1,443z" />

                <ellipse transform="matrix(0.9522 -0.3055 0.3055 0.9522 -130.529 236.5701)" class="st1" cx="690.6" cy="535.3" rx="3.2" ry="4.5" />
                <path class="st1" d="M694.6,533.5c0,0,1,4.5,0,6.3s-4.6,0.7-4.6,0.7l0.6,2.1l-1.8,0.3c0,0,3.2,0.7,2.7,1.4
		c-0.2,0.7-0.3,1.5-0.1,2.3l-1.8,0.6c0,0,2.8,0.4,3,1.4c0.2,0.7,0.3,1.4,0.4,2.2l-3.1,0.6c1.1,0.1,2.2,0.4,3.2,0.9
		c0.4,0.8,0.9,1.6,1.6,2.2c0,0-4.6,1.1-3.3,0.9c1.3-0.2,3.7,1.1,3.7,1.1s1.5,4.1,3,4c2.2-0.2,4.2-1.2,5.7-2.8
		c0.8-0.9,0.7-3.7-0.4-6.9s-6.3-9-6.7-11.3C697,538.1,694.6,533.5,694.6,533.5z" />
                <path class="st1" d="M703.7,559.2c-1.4,1.4-3.3,2.2-5.3,2.3c1.7,1.7,3,3.7,3.8,5.9l-1,2.1l2.2,1c0,0,1.6,2.4,1.4,3.3
		c-0.2,0.9-2,1-2,1l2.5,2c0,0,1,2,0.2,3.5c-0.4,0.9-1,1.6-1.8,2.2c1.1,0.2,2.1,0.5,3.1,0.9c1,0.5-0.3,4,2.1,4.9
		c1.8,0,6.7,0.9,7.4-7.3C716.9,574.6,703.7,559.2,703.7,559.2z" />
                <path class="st1" d="M715.1,588.2c-1.3,1.7-3.6,2.5-5.7,2c1.6,3.3,3.3,8.9,2.8,9.7c-0.6,0.6-1.3,1-2.1,1.1l2.2,0.6
		c0,0,0.4,2.5-0.4,3.4c-0.4,0.5-1,1-1.7,1.2l1.6,1.4c0,0-1.5,1.7-0.8,3.1c5.2,1,8.1,6.9,8.1,6.9s4.7-4.2-0.1-13.8
		S715.1,588.2,715.1,588.2z" />
                <path class="st1" d="M664.2,685.8c0,0,2.2,9.3,9.1,8.4c5.8-0.6,11.1-3.4,14.9-7.8c1.5-1.6,1.9,0.2,1.9,0.2s-1,6.9-6.1,11
		c-2.9,2.1-7.4-0.7-7.4-0.7s1,6.7,6.5,5.8c3-0.9,6,0.6,12.4-17.2c0.6-3.1,12.6-23,14.3-28.5c2.7-7,7.2-33.8,7.5-35.8
		c-2.3-0.7-4.3-2.2-5.5-4.3c0,0-4.5,37-16.1,47.8s-8.9,13.3-8.9,13.3c-0.5,3.9-3.1,7.2-6.9,8.4C667.5,691.7,664.2,685.8,664.2,685.8
		z M695.2,670c0-2,0.7-3.5,1.6-3.5s1.6,1.6,1.5,3.6s-0.7,3.5-1.6,3.5S695.3,672,695.2,670L695.2,670z M690.8,673.3
		c2.4-1.7,1.7-1.9,3.3-1.7c1,1.3,1.6,2.9,1.7,4.6C695.8,676.2,692.8,673.3,690.8,673.3L690.8,673.3z M689.2,677.2
		c0-0.5-0.1-2.3,1.9-2.5c1.5-0.1,2.9,0.8,3.3,2.3c0.5,1.4-0.1,2.9-1.5,3.5c-0.2,0.1-0.4,0.1-0.6,0.2
		C689.5,680.9,689.3,677.7,689.2,677.2L689.2,677.2z" />

                <ellipse transform="matrix(0.6998 -0.7144 0.7144 0.6998 -225.834 695.8618)" class="st1" cx="714.9" cy="616.6" rx="1.7" ry="3.8" />
            </g>
            <path class="wing left st1" d="M486.2,455.6c-9.3-1.5-26.7-37.7-26.7-37.7s-2.7-8.7-23.7-17.7c-38.5-10.7-84.7,4.3-88.3,4.3s-4.7,7-4.7,7
	s2.6,28.1,4.3,35c1.5,5.8-7.7,7.3-6.3,13.3s5.9,14.6,8.8,17.8c2.9,3.2,23.5,23.5,11.2,74.6c-1.8,32.2,1.5,55.5,5,66.3
	s45.3,67.3,45.3,67.3s17.5,19.7,26.7,20.3c9.2,0.7,18.5-7.7,25-7s17.2,6.5,19,5.3S489.5,491.9,486.2,455.6z M450.3,454.9
	c-16-0.5-26.3-15.5-32.3-18s-7.3,2.8-13,2.5s-25-0.3-33.3-4.5s-11.8-10.8-15.8-14.3s-4.3,1.8-4.3,1.8s1,7-2,18.3
	c1.5-8.3-4-27.8-4-27.8s0.3-4.3,3.8-5.5s56.5-7.3,76.5-3.5c11.9,2.3,22.7,8.7,30.3,18.3c0,0,21,28.8,24.5,41.5
	c-5.8-4.7-12.8-8.5-18-9.5C460.3,453.1,456.8,454.9,450.3,454.9z M481.2,477.3c-1.3,0-2.3-1.9-2.3-4.3s1-4.3,2.3-4.3
	s2.3,1.9,2.3,4.3S482.4,477.3,481.2,477.3z" />
            <path class="wing right st1" d="M581.2,442.4c-5,3-31.8-6.3-43,0.5s-21.5,17.5-21.5,17.5s-13.5,7-21.8-1.5c20.5-18.3,23.8-35,28.5-40.3
	s11.8-14.3,28.8-15.8c16.5,2.8,29.3,29.8,29.3,29.8S586.2,439.4,581.2,442.4z M605.9,439.4c-7.7,1.7-15.3,8.2-18.5-4.2
	c-6.8-20.2-28.5-33.7-28.5-33.7s32.5-7,73.3,5.2c6.3,3.3,1.5,19.3-1.3,24C627.9,433.9,613.5,437.7,605.9,439.4z M633.6,445.7
	c1.7-6.9,4.3-35,4.3-35s-1-7-4.7-7s-52.8-14-91.3-3.3c-21,9-23.7,17.7-23.7,17.7s-17.3,36.2-26.7,37.7c-3.3,36.3,2.5,247.8,4.3,249
	s12.5-4.7,19-5.3s15.8,7.7,25,7s26.7-20.4,26.7-20.4s41.8-56.5,45.3-67.3s6.8-34.2,5-66.3c-12.3-51,8.3-71.3,11.2-74.5
	s7.5-11.8,8.8-17.8C638.3,454,632.2,451.5,633.6,445.7z" />
        </svg>